<?xml version="1.0" encoding="utf-8"?>
<!-- Generator: Adobe Illustrator 22.1.0, SVG Export Plug-In . SVG Version: 6.00 Build 0)  -->
<svg version="1.1" id="Layer_1" xmlns="http://www.w3.org/2000/svg" xmlns:xlink="http://www.w3.org/1999/xlink" x="0px" y="0px"
	 viewBox="0 0 119.2 67.5" style="enable-background:new 0 0 119.2 67.5;" xml:space="preserve">
<style type="text/css">
	.st0{fill:#FFFFFF;}
</style>
<g>
	<path class="st0" d="M0,47.5h10.4c3.8,0,5.7,2.4,5.7,5c0,2.5-1.5,4.1-3.4,4.5c2.1,0.3,3.8,2.4,3.8,4.9c0,3-2,5.3-5.7,5.3H0V47.5z
		 M9.5,55.4c1.4,0,2.3-0.9,2.3-2.2c0-1.2-0.9-2.2-2.3-2.2H4.2v4.3H9.5z M9.6,63.6c1.6,0,2.5-0.9,2.5-2.3c0-1.2-0.9-2.3-2.5-2.3H4.2
		v4.6H9.6z"/>
	<path class="st0" d="M19.6,47.5h4.3v11.7c0,2.8,1.5,4.6,4.6,4.6c3,0,4.5-1.9,4.5-4.6V47.5h4.3v11.8c0,4.9-2.8,8.3-8.8,8.3
		c-6,0-8.8-3.4-8.8-8.2V47.5z"/>
	<path class="st0" d="M41.1,47.5h4.2v19.7h-4.2V47.5z"/>
	<path class="st0" d="M49.2,47.5h4.2v16h8.3v3.7H49.2V47.5z"/>
	<path class="st0" d="M64.7,47.5h7.8c6.2,0,10.5,3.9,10.5,9.9s-4.3,9.8-10.5,9.8h-7.8V47.5z M72.5,63.5c3.9,0,6.2-2.8,6.2-6.2
		c0-3.5-2.1-6.2-6.2-6.2h-3.6v12.3H72.5z"/>
	<path class="st0" d="M86,47.5h14v3.6h-9.8v4.3h9.6V59h-9.6v4.6h9.8v3.6H86V47.5z"/>
	<path class="st0" d="M110.5,60.1h-3.1v7.1h-4.2V47.5h9.2c4.1,0,6.6,2.7,6.6,6.4c0,3.5-2.2,5.4-4.3,5.9l4.4,7.5h-4.8L110.5,60.1z
		 M111.8,51.1h-4.4v5.4h4.4c1.7,0,3-1.1,3-2.7C114.8,52.1,113.5,51.1,111.8,51.1z"/>
</g>
<g>
	<path class="st0" d="M85.5,13.6c-1.1-0.7-2.3-0.8-3.6-0.4c-0.2,0.1-0.4,0.1-0.6,0.2c0,0,0,0,0,0c0-0.1,0.1-0.2,0.1-0.2
		c0.1-0.1,0.2-0.1,0.4-0.2c0.6-0.1,1.1-0.3,1.7-0.2c0.2,0,0.3-0.1,0.3-0.3c-0.6-0.2-1.4,0-2.6,0.5c-0.1-0.5-0.2-0.9-0.4-1.3
		c0.5-0.4,0.3-1.4-0.2-1.8c0.1-0.2,0-0.4-0.1-0.6c-0.1-0.3-0.3-0.3-0.6-0.3c-0.2,0-0.4,0-0.6,0c0,0-0.1,0-0.1-0.1
		c-0.1-0.3-0.4-0.4-0.4-0.7c0,0,0,0-0.1-0.1c-0.7-0.6-1.3-1.3-1.7-2.1c0-0.1-0.1-0.1-0.2-0.1c-0.2-0.1-0.3-0.1-0.4-0.3
		c0-0.2-0.2-0.4-0.3-0.6C76,4.8,76,4.6,75.9,4.4C76.1,4.3,76.1,4.2,76,4C76,4,76,3.9,75.9,3.8c-0.1-0.2,0-0.2,0.2-0.3
		c0.1,0,0.3,0,0.4,0c0.3,0,0.4,0,0.4-0.3c0,0,0,0,0-0.1c0,0,0-0.1,0.1-0.1c0.1-0.1,0.1-0.2,0.2-0.3c0,0,0-0.1,0.1-0.1
		c0.2-0.1,0.2-0.2,0.1-0.3c-0.1-0.2-0.1-0.5,0-0.7c0.1-0.2,0.1-0.3,0.3-0.3c0.1,0,0.1,0,0.2,0c0.1-0.1,0.3-0.2,0.4-0.3
		c0.1-0.1,0.1-0.3-0.1-0.4c-0.4-0.1-0.9-0.3-1.3-0.4c-0.4-0.1-0.8-0.2-1.3-0.1c-0.4,0.1-0.7,0.3-0.9,0.5c-0.2,0.2-0.1,0.4-0.2,0.7
		c0,0.1,0,0.3,0.1,0.4c0.1,0.2,0.1,0.4,0,0.6c0,0.1,0,0.1,0,0.2c0,0.2,0.1,0.4,0.3,0.6c0.1,0.1,0.3,0.2,0.4,0.3
		c0.1,0.1,0.2,0.3,0.3,0.4c0.1,0.2,0,0.5,0.2,0.7c-0.1,0-0.2-0.1-0.3-0.1c-0.1-0.1-0.2-0.3-0.3-0.4c-0.2-0.3-0.4-0.6-0.4-0.9
		c0-0.1,0-0.2-0.1-0.2c-0.1-0.1-0.1-0.1-0.3-0.1C74.1,2.8,74,2.9,73.8,3c-0.3,0.2-0.7,0.4-1,0.6c-0.2,0.1-0.4,0.3-0.5,0.5
		c-0.5,0.8-0.9,1.6-1.4,2.3c-0.2,0.4-0.5,0.7-0.5,1.2c0,0.2,0,0.4-0.1,0.6c0,0.4-0.1,0.8-0.3,1.1c0,0,0,0.1,0,0.1
		c0.3,0.4,0.6,0.8,0.9,1.2c0.3,0.3,0.6,0.6,1.1,0.6c0.1,0,0.1,0,0.2,0.1c0.3,0.5,0.6,0.8,1.1,1.1c0.2,0.1,0.4,0.2,0.6,0.3
		c0,0.1,0.1,0.3,0.1,0.4c-0.3-0.1-0.5-0.2-0.8-0.3c-0.6-0.2-1.1-0.2-1.7-0.2c-0.6,0-1.2-0.1-1.8-0.2c-0.1,0-0.2-0.1-0.2-0.1
		c-0.1-0.3-0.3-0.6-0.4-0.9c0.1-0.1,0.2-0.2,0.2-0.3c0.1-0.3,0.1-0.6,0-0.9c-0.2-0.3-0.4-0.5-0.6-0.7c-0.2-0.2-0.4-0.3-0.6-0.2
		c-0.2,0-0.5,0-0.6-0.2c-0.1-0.1-0.2-0.1-0.2,0c-0.2,0.3-0.4,0.5-0.6,0.7c-0.2-0.2-0.2-0.3,0-0.5c0.1-0.1,0.1-0.1,0.2-0.2
		c0.1-0.1,0.2-0.1,0.2-0.2c0.2-0.2,0.2-0.4,0-0.6C67.1,8.5,67,8.4,67,8.4c-0.4-0.3-0.6-0.6-0.7-1c0-0.1-0.1-0.1-0.1-0.2
		c-0.1-0.2-0.3-0.3-0.5-0.5c-0.2-0.2-0.4-0.4-0.6-0.6c0,0,0,0-0.1-0.1c-0.1-0.2-0.2-0.4-0.3-0.7c0-0.1-0.1-0.2-0.1-0.3
		c0.1-0.3,0-0.5-0.2-0.7c-0.1-0.1-0.1-0.3-0.2-0.5c-0.1-0.2,0-0.3,0.2-0.2c0.1,0,0.2,0.1,0.4,0.2c0.2,0.1,0.4,0,0.4-0.2
		c0-0.1,0-0.2,0-0.2c0,0,0-0.1,0-0.1c0.1-0.2,0.3-0.3,0.4-0.5c0-0.1,0-0.2,0-0.3c0-0.1-0.1-0.1-0.1-0.2c0,0,0-0.1,0-0.1
		C65.9,2,65.9,1.8,66,1.6c0.2-0.1,0.4-0.1,0.5-0.2c0.2-0.1,0.3-0.2,0.2-0.4c0,0-0.1-0.1-0.1-0.1c-0.5-0.2-1.1-0.4-1.6-0.5
		c-0.6-0.2-1.2-0.1-1.7,0.3c-0.2,0.2-0.4,0.8-0.3,1.1c0.1,0.2,0.1,0.5,0.1,0.7C63,2.9,63,2.9,63.4,3.2c0.1,0.1,0.2,0.1,0.3,0.2
		c0,0,0.1,0.1,0.1,0.1c0.1,0.1,0.2,0.3,0.3,0.4c0.1,0.1,0.1,0.2,0.1,0.3c0,0.3-0.1,0.5-0.1,0.8c0,0,0,0-0.1,0
		c-0.1-0.2-0.2-0.4-0.2-0.6c-0.1-0.3-0.2-0.6-0.3-0.9c-0.2-0.4-0.5-0.6-1-0.3c-0.1,0.1-0.3,0.1-0.5,0.2c-0.1,0-0.2,0.1-0.2,0.1
		c-0.2,0.2-0.4,0.4-0.6,0.6c-0.6,0.6-1.2,1.3-1.4,2.2c0,0.1-0.1,0.1-0.1,0.2c-0.1,0.2-0.2,0.3-0.2,0.5c0,0.1,0,0.2-0.1,0.3
		c-0.2,0.8-0.5,1.5-0.6,2.3c0,0,0,0.1-0.1,0.1c-0.1,0.2-0.1,0.3,0.1,0.4c0,0,0,0,0.1,0c0.1,0.1,0.2,0.1,0.2,0.3
		c0,0.7,0.8,1.4,1.5,1.3c0,0,0.1,0,0.1,0.1c0.1,0.1,0.2,0.3,0.4,0.4c0.2,0.2,0.2,0.2,0.1,0.4C61,12.6,61,12.8,60.9,13
		c0,0.1-0.1,0.1-0.2,0.1c-0.1,0-0.3-0.1-0.4-0.1c-0.2-0.1-0.4-0.1-0.6-0.3c0.1,0,0.1,0,0.2,0c0.1,0,0.1,0,0.2,0
		c0.1,0,0.1-0.1,0.2-0.1c0-0.1-0.1-0.1-0.1-0.2c-0.1,0-0.2,0-0.3,0c-0.7-0.1-1.5,0-2.2,0.2c-0.2,0-0.4,0.1-0.7,0.1
		c-0.1-0.4-0.1-0.7-0.2-1c0,0,0-0.1,0-0.1c0-0.3,0-0.6,0-0.8c0-0.5-0.1-0.9-0.6-1.1c0,0-0.1-0.1-0.1-0.1c0-0.2-0.1-0.3-0.3-0.3
		c-0.3,0-0.6-0.1-0.9-0.1c-0.1,0-0.1,0-0.2-0.2c0-0.1-0.1-0.2-0.1-0.2c-0.2,0-0.2-0.1-0.3-0.2c-0.1-0.1-0.2-0.3-0.3-0.4
		c-0.2-0.4-0.5-0.7-0.6-1.2c0-0.2-0.1-0.3-0.3-0.4C53,6.5,53,6.4,53,6.3c0-0.2-0.1-0.4-0.2-0.5c-0.2-0.2-0.3-0.4-0.5-0.6
		C52.2,5.1,52.1,5,52,4.9c-0.2-0.2-0.3-0.5-0.3-0.8c0-0.1,0-0.2,0-0.3c-0.4,0-0.3,0.3-0.4,0.6c-0.1-0.2-0.2-0.3-0.2-0.5
		c-0.2-0.3-0.3-0.7-0.5-1c-0.1-0.1-0.2-0.2-0.3-0.1c-0.6,0.2-1,0.5-1.4,0.9c-0.4,0.4-0.7,0.9-1.1,1.3c-0.4,0.4-0.6,0.8-0.6,1.3
		c0,0.2,0,0.4-0.1,0.5c-0.1,0.2-0.1,0.4-0.2,0.6c0,0.1-0.1,0.2-0.1,0.3c-0.1,0.2-0.2,0.3-0.2,0.5c0,0.1,0,0.2-0.1,0.3
		c-0.1,0.2-0.2,0.4-0.3,0.5c-0.2,0.3-0.2,0.6,0,0.9c0.1,0.1,0.1,0.1,0.2,0.1c0.1,0,0.3,0,0.3,0.2c0.1,0.2,0.1,0.3,0.2,0.5
		c0.1,0.1,0.1,0.3,0.2,0.4c0.1,0.2,0.2,0.2,0.4,0.2c0.2,0,0.4,0,0.6,0c0.1,0,0.2,0.1,0.2,0.1c0.1,0.1,0.2,0.3,0.3,0.5
		c0,0,0,0.1,0,0.2c0,0-0.1,0.1-0.1,0.1c-0.3,0.1-0.7,0.1-1,0.2c-0.4,0.1-0.9,0.2-1.3,0.1c-0.1,0-0.1-0.1-0.2-0.1
		c-0.1-0.3-0.2-0.5-0.3-0.8c-0.1-0.3-0.1-0.6,0.1-0.9c0.1-0.1,0.1-0.3,0.1-0.4c0-0.3-0.2-0.4-0.4-0.5c-0.1-0.1-0.2-0.3-0.2-0.5
		c0-0.1,0-0.1-0.1-0.2c-0.1-0.1-0.2-0.1-0.3-0.1c-0.2,0-0.4-0.1-0.6-0.1c-0.2,0-0.3-0.1-0.3-0.3c0-0.2-0.1-0.2-0.3-0.2
		c0,0,0,0-0.1,0c0.1-0.2,0.1-0.3-0.1-0.5c-0.3-0.3-0.7-0.7-1-1c-0.4-0.4-0.7-0.8-1-1.3c-0.1-0.1-0.1-0.2,0-0.3c0,0,0-0.1,0-0.1
		c-0.2-0.4-0.4-0.9-0.6-1.3c0,0-0.1-0.1-0.1-0.1c0-0.1-0.1-0.2-0.1-0.3c0.1,0,0.1-0.1,0.2-0.1c0,0,0.1,0,0.1,0
		c0.1,0,0.2,0.1,0.3,0.1c0.2,0.1,0.4,0,0.4-0.2c0-0.1,0-0.2,0-0.3c0,0,0-0.1,0-0.1c0.1-0.2,0.3-0.3,0.4-0.4c0,0,0-0.1,0-0.1
		c0-0.1-0.1-0.2-0.1-0.3c0-0.1,0-0.1,0-0.2c0-0.2,0.1-0.3,0.2-0.5c0.1,0,0.2,0,0.3-0.1c0.1-0.1,0.3-0.2,0.4-0.3
		c0.1-0.2,0.1-0.3-0.2-0.4c-0.3-0.1-0.6-0.2-0.9-0.3c-0.4-0.1-0.9-0.3-1.3-0.3c-0.4,0-0.8,0.2-1.1,0.5c-0.2,0.2-0.2,0.5-0.2,0.7
		c0,0.1,0,0.3,0,0.4c0,0.1,0.1,0.2,0.1,0.3c0,0.2,0,0.5-0.1,0.7c-0.1-0.1-0.2-0.1-0.4,0c-0.1,0.1-0.3,0.2-0.4,0.3
		c-0.3,0.1-0.5,0.3-0.8,0.4c-0.2,0.1-0.4,0.3-0.6,0.5c-0.2,0.4-0.5,0.7-0.7,1c-0.4,0.5-0.7,1.1-0.9,1.7c-0.1,0.3-0.1,0.7-0.2,1
		c-0.1,0.5-0.2,1-0.4,1.4c0,0.1,0,0.2,0,0.2c0,0.3,0.4,0.5,0.3,0.9c0,0,0,0,0,0.1c0.1,0.1,0.1,0.2,0.2,0.3c0.1,0.2,0.1,0.4,0.2,0.6
		c0,0.1,0.1,0.3,0.3,0.3c0,0,0.1,0,0.1,0c0.1,0.1,0.3,0.1,0.4,0.1c0.1,0,0.2,0.2,0.4,0.2c0.1,0.1,0.3,0.1,0.5,0.1
		c0.1,0.1,0.2,0.2,0.3,0.3c0,0,0,0.1,0,0.1c-0.1,0.2-0.3,0.4-0.4,0.6c-0.1,0.1-0.1,0.1-0.2,0.1c-0.8-0.4-1.7-0.6-2.7-0.5
		c-0.3,0-0.6,0.1-0.8,0.2c-0.1,0-0.2,0.1-0.3,0.2c0,0,0,0,0,0.1c0.3-0.1,0.5-0.1,0.8-0.2c0.8-0.2,1.6-0.1,2.4,0.1
		c0.2,0.1,0.4,0.2,0.6,0.4c-0.1,0.1-0.1,0.1-0.3,0c-0.2-0.1-0.4-0.2-0.6-0.2c-1.2-0.4-2.4-0.2-3.4,0.5c-0.9,0.6-1.5,1.5-1.7,2.5
		c0,0.2,0,0.4-0.2,0.5c0,0,0,0.1,0,0.1c0,0.2,0.1,0.4,0.1,0.7c0,0.7,0.3,1.4,0.7,2c0.4,0.6,1,1.1,1.6,1.3c0.8,0.4,1.6,0.5,2.5,0.3
		c1.6-0.3,2.7-1.2,3.2-2.8c0-0.1,0-0.1,0.1-0.1c0,0,0.1,0,0.1,0c0,0,0,0.1,0,0.1c0,0.1-0.1,0.2-0.1,0.3c-0.1,0.3,0,0.5,0.2,0.6
		c0.2,0.1,0.5,0.2,0.7,0.1c0.2-0.1,0.3,0,0.4,0.1c0.5,0.2,0.9,0.4,1.5,0.3c0.2,0,0.3-0.2,0.2-0.4c0-0.1-0.1-0.2-0.2-0.3
		c-0.1-0.1-0.2-0.1-0.4-0.2c0.1-0.1,0.1-0.1,0.2-0.2c0.2-0.1,0.2-0.3,0.2-0.5c0-0.3-0.1-0.5-0.3-0.7c-0.2-0.2-0.4-0.3-0.5-0.5
		c0.4-0.3,0.8-0.7,1.1-1.1c0,0.1,0,0.1-0.1,0.2c-0.3,1-0.2,2,0.4,2.9c1,1.7,3.1,2.4,5,1.7c0.1,0,0.2,0,0.2,0
		c0.9,0.2,1.8,0.2,2.7-0.2c0.5-0.2,1-0.5,1.3-0.9c0.2-0.2,0.3-0.3,0.6-0.1c0.2,0.1,0.4,0.1,0.6,0.1c0.2-0.1,0.3-0.1,0.5-0.2
		c0-0.1,0-0.2-0.1-0.2c-0.2-0.2-0.3-0.3-0.5-0.5c0,0,0.1-0.1,0.1-0.1c0.1-0.1,0.3-0.2,0.4-0.3c0.3-0.2,0.4-0.6,0.1-0.9
		c-0.1-0.1-0.2-0.2-0.2-0.3c-0.1-0.1-0.1-0.2,0-0.3c0.4-0.4,0.8-0.9,1.3-1.3c0.1-0.1,0.2-0.2,0.3-0.3c0,0,0,0,0,0c0,0,0,0.1,0,0.1
		c-0.3,0.8-0.4,1.6-0.2,2.4c0.2,1,0.8,1.7,1.7,2.3c0.6,0.4,1.2,0.6,1.9,0.6c0.5,0,1,0,1.5,0c0.2,0,0.4,0,0.5,0
		c0.9-0.1,1.6-0.6,2.3-1.2c0.2-0.2,0.3-0.3,0.5-0.5c0.1,0.2,0.3,0.3,0.6,0.3c0.2,0,0.5,0,0.7,0c0.1,0,0.3,0,0.4,0
		c0.1,0,0.1,0,0.1,0.1c0,0.1,0,0.2,0.1,0.2c0.2,0.1,0.4,0.1,0.6,0.1c0.1,0,0.3,0,0.3-0.2c0,0,0.1-0.1,0.1-0.1c0.2-0.2,0.2-0.4,0-0.6
		c-0.1-0.1-0.2-0.1-0.4-0.2c-0.1-0.1-0.2-0.1-0.3-0.2c0.2-0.1,0.4-0.3,0.4-0.5c0-0.3,0-0.5-0.1-0.8c0,0,0-0.1,0-0.1
		c0.1-0.2,0.2-0.4,0.5-0.6c0,0.1,0,0.1,0,0.2c0,0.9,0.3,1.8,0.9,2.5c0.9,1.1,2.1,1.5,3.4,1.5c0.2,0,0.2,0,0.3-0.2
		c0.9,0.5,1.9,0.5,2.9,0.2c1-0.3,1.8-0.8,2.3-1.7c0.1,0,0.1,0.1,0.1,0.1c0.3,0.2,0.7,0.4,1.1,0.4c0.1,0,0.3-0.1,0.3-0.2
		c0.1-0.1,0-0.3-0.1-0.4c-0.1-0.1-0.1-0.1-0.2-0.1c-0.1-0.1-0.2-0.1-0.3-0.2c-0.1-0.1-0.1-0.1-0.1-0.2c0,0,0,0,0,0
		c0.3,0.1,0.4-0.1,0.5-0.2c0-0.1,0.1-0.2,0.1-0.3c0-0.2,0.1-0.3,0.1-0.5c0-0.1,0-0.2,0.1-0.2c0.2-0.2,0.4-0.5,0.6-0.7
		c0.3-0.4,0.6-0.8,1-1.1c0.1-0.2,0.3-0.3,0.5-0.3c-0.1,0.3-0.2,0.6-0.3,0.9c-0.1,0.3-0.1,0.6-0.1,0.9c0,0.4,0,0.9,0.2,1.3
		c0,0.1,0.1,0.1,0.1,0.1c0,0,0.1,0,0.2-0.1c0.1-0.1,0.1-0.3,0.1-0.4c-0.1-0.4-0.2-0.7-0.1-1.1c0-0.6,0.1-1.2,0.5-1.7
		c0.1-0.2,0.3-0.3,0.3-0.5c0.1-0.3,0.4-0.5,0.6-0.7c0.1-0.1,0.2-0.1,0.3-0.1c0.1,0,0,0.2-0.1,0.3c0,0,0,0,0,0
		c-0.5,0.3-0.8,0.8-1,1.2C79,16.6,79.2,18,80,19.3c0.7,1.1,1.8,1.7,3.1,1.7c1.2,0.1,2.2-0.3,3-1.1c0.5-0.5,1-1.1,1.2-1.8
		c0-0.3,0.1-0.5,0.1-0.8C87.4,15.7,86.9,14.5,85.5,13.6z M72.3,12.9c0.7,0.1,1.3,0.3,1.8,0.7c0.2,0.1,0.2,0.1,0.1,0.4
		c-0.2-0.1-0.4-0.2-0.5-0.3c-0.6-0.3-1.2-0.5-1.8-0.5c-0.1,0-0.3,0-0.4-0.2C71.8,12.9,72.1,12.9,72.3,12.9z M70.6,13.1
		c0.3-0.2,0.5,0,0.7,0.1c0,0,0,0,0,0.1c-0.1,0-0.2,0-0.3,0c-0.1,0-0.2,0-0.3,0.1c-0.2,0.1-0.3,0.2-0.5,0.2c-0.1,0-0.1,0-0.2,0
		c0-0.2,0-0.3,0.2-0.3c0.1,0,0.2,0,0.3,0C70.7,13.3,70.7,13.2,70.6,13.1z M70.4,12.8c-0.3,0.2-0.6,0.2-0.6,0
		C70,12.7,70.2,12.8,70.4,12.8z M69.8,14.7C69.8,14.7,69.8,14.7,69.8,14.7c0.3,0.3,0.4,0.7,0.7,1c0.3,0.4,0.5,0.8,0.8,1.2
		c0.1,0.1,0.3,0.2,0.4,0.3c0.1,0,0.2,0,0.3,0c0.1-0.1,0.1-0.2,0-0.3c-0.2-0.3-0.5-0.5-0.7-0.8c-0.2-0.3-0.4-0.6-0.5-1
		c0-0.1-0.1-0.1-0.1-0.2c-0.2-0.3-0.3-0.6-0.3-1c0.1,0,0.1,0,0.1,0.1c0.1,0.1,0.2,0.1,0.3,0.1c0.3-0.1,0.5,0,0.7,0.1
		c0.7,0.6,1.2,1.2,1.4,2.1c0.2,0.9,0,1.7-0.6,2.4c-0.4,0.5-0.8,0.8-1.4,1c-0.2,0-0.3,0-0.4,0c-1.3-0.7-2.3-2.5-1.2-4.3
		C69.3,15.2,69.6,15,69.8,14.7z M73,14.3c0.2,0.5,0.5,0.9,0.7,1.4c0.2,0.4,0.3,0.8,0.3,1.3c0,0.2,0,0.3,0,0.5c0,0.1,0,0.2,0.1,0.4
		c0.2-0.1,0.2-0.3,0.2-0.5c0.1-0.6,0-1.1-0.2-1.7c-0.2-0.4-0.4-0.8-0.6-1.2c0,0,0-0.1-0.1-0.1c0.5,0.2,0.9,0.5,1.1,0.9
		c0.1,0.1,0.1,0.3,0.1,0.5c0,0.6,0,1.2-0.2,1.8c-0.1,0.1-0.1,0.3-0.2,0.4c-0.1,0.2-0.2,0.4-0.2,0.5c-0.1,0.2,0,0.4,0.3,0.4
		c0.1,0,0.2,0.1,0.3,0.1c-0.3,0.6-1.6,1.3-2.5,1.2c0,0,0-0.1,0.1-0.1c1-0.7,1.5-1.7,1.6-3c0.1-1.1-0.3-2-0.9-2.8
		c-0.1-0.1-0.3-0.3-0.5-0.2c0.1,0.1,0.1,0.2,0.2,0.3c0.6,0.6,1,1.4,1,2.3c0,1-0.3,1.9-0.9,2.6c-0.2,0.2-0.5,0.4-0.8,0.7
		c-0.1,0.1-0.3,0.1-0.4,0.1c-0.1,0-0.2,0-0.4-0.1c0.1-0.1,0.2-0.1,0.2-0.2c0.7-0.2,1.1-0.8,1.5-1.3c0.7-1,0.5-2.8-0.3-3.8
		c-0.3-0.3-0.5-0.6-0.9-0.8c0.6-0.1,1.1,0,1.6,0.2C73,14.2,73,14.2,73,14.3C73,14.3,72.9,14.3,73,14.3z M69.5,13.8
		C69.5,13.8,69.5,13.8,69.5,13.8c-0.1,0.2-0.3,0.4-0.5,0.5c-0.9,0.8-1.2,1.8-1.2,2.9c0,0.9,0.3,1.7,0.9,2.4c0.1,0.1,0.2,0.3,0.3,0.4
		c0,0,0,0,0,0c-0.4-0.1-0.7-0.1-1-0.3c-0.2-0.1-0.4-0.3-0.5-0.5c0,0-0.1-0.1-0.1-0.1c-0.7-0.4-1-1.1-1.1-1.8c-0.1-0.4,0-0.9,0.1-1.3
		c0.1-0.3,0.2-0.5,0.5-0.7c0.3-0.2,0.6-0.4,0.8-0.7c0.2-0.2,0.4-0.3,0.6-0.5c0,0,0,0,0,0c-0.1,0.2-0.2,0.3-0.3,0.5
		c-0.1,0.1-0.2,0.3-0.3,0.4c-0.4,0.7-0.5,1.4-0.5,2.2c0,0.1,0,0.3,0.2,0.3c0-0.3,0-0.7,0.1-1c0.1-1,0.5-1.9,1.3-2.5
		c0.1-0.1,0.3-0.2,0.4-0.3C69.4,13.7,69.5,13.8,69.5,13.8z M66.2,15.2c0.1-0.7,1.6-1.8,2.4-1.9c-0.1,0.1-0.2,0.2-0.3,0.2
		c-0.4,0.2-0.7,0.4-1.1,0.7c-0.2,0.1-0.3,0.3-0.4,0.4c-0.1,0.1-0.2,0.2-0.3,0.3C66.5,15.1,66.3,15.1,66.2,15.2z M66.4,10.6
		c0-0.2-0.1-0.5-0.1-0.7c0.1,0.1,0.2,0.3,0.3,0.3c0.1,0,0.3,0,0.4-0.1c0,0,0,0,0,0.1c0.1,0.1,0.1,0.2,0.3,0.2c0.3,0,0.5,0,0.8-0.1
		c0.1,0,0.1,0,0.1,0.1c0,0.1,0.1,0.2,0.2,0.2c0.2,0.1,0.3,0.3,0.5,0.4c0.2,0.1,0.1,0.2,0,0.3c-0.2,0.2-0.2,0.2-0.2,0.4
		c-1,0-1.9,0.1-2.9,0.1c0-0.1,0.1-0.3,0.1-0.4c0,0,0.1-0.1,0.1-0.1C66.3,11.2,66.5,11,66.4,10.6z M61.4,13.2
		c0.1-0.2,0.1-0.3,0.2-0.4c0.2,0.1,0.4,0.2,0.6,0.3c0,0,0.1,0.1,0.1,0.2c0,0.2,0.1,0.4,0.2,0.5c0.1,0.1,0.2,0.2,0.2,0.2
		c0.2,0.2,0.2,0.4,0.1,0.7c0,0-0.1-0.1-0.1-0.1c-0.4-0.5-0.8-0.9-1.3-1.2C61.4,13.3,61.4,13.2,61.4,13.2z M59.2,12.8
		c-0.6,0.1-1.3,0.2-1.9,0.3C57.5,12.8,58.5,12.6,59.2,12.8z M57.7,15.6c0.2,0.3,0.4,0.7,0.7,1c-0.3,0-0.7,0-1,0
		c-0.4,0-0.7,0.1-1,0.1c0,0,0,0,0,0.1c0.1,0.1,0.2,0.2,0.3,0.2c0.3,0,0.6,0.1,0.9,0.1c0.2,0,0.5-0.1,0.7-0.1c0.1,0,0.2-0.1,0.2-0.2
		c0,0,0-0.1,0.1-0.1c0.1,0.1,0.1,0.1,0.2,0.2c0.2,0.2,0.3,0.3,0.5,0.1c0.1,0,0.1-0.1,0.2-0.1c0.3-0.1,1.5-0.1,1.9,0.1
		c-0.2,0-0.3,0-0.5,0c-0.3,0-0.6,0-0.9,0c-0.1,0-0.2,0.1-0.3,0.1c-0.1,0-0.1,0.1-0.2,0.1c-0.1,0-0.3,0-0.4,0c0,0-0.1,0-0.1,0.1
		c0,0,0.1,0.1,0.1,0.1c0.2,0,0.4,0.1,0.7,0.1c0.4,0,0.8,0.1,1.2,0.2c0.2,0,0.3,0.1,0.5,0.1c-0.4,0.9-0.9,1.7-1.8,2.1
		c-0.4,0.2-0.9,0.2-1.3,0c-0.9-0.3-1.7-0.9-2.1-1.8c-0.5-1-0.3-2,0.3-3c0.1-0.2,0.3-0.4,0.5-0.7C57.3,14.8,57.5,15.2,57.7,15.6z
		 M61.7,17.9c0,0,0.1-0.1,0.1-0.1c0.2,0,0.3-0.2,0.2-0.4c-0.1-0.1-0.2-0.3-0.1-0.5c0-0.1,0.1-0.2,0.2-0.1c0.1,0.1,0.2,0.3,0.1,0.4
		c0,0.9-0.4,1.7-1.2,2.2c-0.2,0.1-0.3,0.2-0.5,0.3c0,0,0,0,0,0c0.2-0.2,0.4-0.5,0.6-0.7C61.3,18.7,61.6,18.3,61.7,17.9z M61.4,17.5
		c0,0-0.1,0-0.1,0c-0.4-0.1-0.7-0.2-1.1-0.2c0,0,0,0-0.1-0.1c0.5,0,0.9,0,1.3,0.1C61.5,17.3,61.5,17.4,61.4,17.5
		C61.5,17.4,61.5,17.5,61.4,17.5z M61.8,16.6c0-0.2-0.1-0.4-0.1-0.6c-0.2-0.7-0.5-1.2-1.1-1.6c-0.1-0.1,0-0.2,0-0.2
		c0.1-0.1,0.1,0,0.2,0c0.5,0.4,0.9,0.9,1.1,1.6c0.1,0.3,0.2,0.6,0.3,0.9C62,16.6,61.9,16.6,61.8,16.6z M61.5,16.6c0,0-0.1,0-0.1,0
		c-0.7,0-1.4,0-2.2,0.1c-0.1,0-0.2,0-0.2-0.1c0-0.1,0-0.2,0-0.3c0,0,0,0,0-0.1c0.4-0.3,0.5-0.7,0.8-1.1c0.1-0.2,0.3-0.4,0.5-0.7
		C61,15,61.4,15.7,61.5,16.6z M60.2,14c-0.2-0.1-0.4-0.2-0.6-0.3c0,0,0,0,0-0.1c0.2,0.1,0.4,0.1,0.6,0.2C60.3,13.9,60.3,14,60.2,14z
		 M60,14.2c-0.5,0.7-0.9,1.3-1.4,2c-0.2-0.3-0.4-0.5-0.5-0.8c-0.2-0.4-0.3-0.7-0.5-1.1c-0.1-0.1,0-0.2,0.1-0.2
		c0.6-0.3,1.2-0.3,1.8-0.1C59.7,14,59.8,14.1,60,14.2z M54.3,9.1C54.3,9.1,54.3,9.1,54.3,9.1c-0.1,0.2-0.2,0.4-0.3,0.6c0,0,0,0,0,0
		C53.9,9.4,54.1,9.3,54.3,9.1z M53.6,11.1c0.3-0.3,0.5-0.6,0.4-1.1c0.4,0.2,0.8,0.1,1.2,0c0.1,0.1,0.1,0.2,0.2,0.3
		c0.1,0.1,0.3,0.2,0.4,0.2c0.2,0,0.2,0,0.2-0.2c0,0,0-0.1,0-0.1c0,0,0.1,0,0.1,0c0,0,0.1,0.1,0.1,0.1c0.1,0.2,0.2,0.4,0.2,0.6
		c0,0.2-0.2,0.4-0.4,0.5c-0.3,0.1-0.7,0.1-1,0c-0.1,0-0.3-0.1-0.4-0.1c-0.2,0-0.3,0.1-0.5,0.1c-0.3,0-0.6,0-0.9,0c0,0,0,0,0-0.1
		C53.4,11.3,53.5,11.2,53.6,11.1z M51.3,7.1c0.3,0.4,0.5,0.7,0.8,1c0.3,0.3,0.6,0.6,0.9,0.9c-0.7,0-1.5-0.2-2.3-0.1
		c0-0.2-0.1-0.4-0.4-0.6C50.8,8.2,51.1,7.7,51.3,7.1z M51.7,11.5c0,0-0.1,0-0.1-0.1c-0.1,0-0.1-0.1-0.2-0.1c0.1-0.1,0.2-0.2,0.3-0.2
		C51.8,11.2,51.8,11.3,51.7,11.5z M49.7,12.8c0.2,0.1,0.5,0.2,0.7,0.2c0,0.1,0,0.1-0.1,0.2C50.2,13.1,49.9,13.1,49.7,12.8
		C49.7,12.8,49.7,12.8,49.7,12.8z M49.3,12.9c-0.2,0-0.3,0-0.5,0C48.9,12.7,49,12.7,49.3,12.9z M46.4,15.4c0.1,0,0.1,0,0.2,0
		c0.1,0,0.2,0.1,0.1,0.2c-0.1,0.3-0.3,0.5-0.4,0.8c-0.1,0.2-0.2,0.3-0.3,0.4c0,0.1-0.1,0.1-0.1,0.1c0,0.1,0,0.2-0.1,0.3
		c0,0.2,0,0.2,0.2,0.2c0,0,0.1,0,0.1,0c0.1,0,0.2,0,0.3,0.1c0,0,0.1,0.1,0.1,0c0.6-0.1,1.3,0,1.9,0.1c0.1,0,0.2,0,0.4,0
		c0.1,0,0.2,0,0.3,0.1c-0.1,0.2-0.2,0.2-0.4,0.1c-0.3,0-0.7-0.1-1-0.1c-0.3,0-0.6,0-0.9,0c-0.1,0-0.2,0-0.2,0.1
		c0,0.2,0.1,0.2,0.3,0.2c0.1,0,0.2,0,0.3,0c0.4,0,0.9,0.1,1.3,0.1c0.2,0,0.3,0,0.6,0c-0.1,0.2-0.1,0.3-0.2,0.5
		c-0.3,0.5-0.7,0.9-1.2,1.2c-0.1,0-0.1,0-0.2,0c-1.1-0.4-1.8-1.2-2-2.4c-0.1-0.8,0.1-1.6,0.6-2.2c0.1-0.1,0.2-0.2,0.2-0.3
		c0.2,0.2,0.2,0.2,0,0.4C46.3,15.2,46.3,15.3,46.4,15.4C46.3,15.3,46.3,15.3,46.4,15.4z M50.1,15.8c0.1,0.2,0.1,0.4,0.2,0.6
		c0,0.2,0,0.3-0.2,0.4c-0.1-1.3-0.8-2.2-1.8-3c0,0,0,0,0-0.1c0.1,0,0.1,0,0.2,0.1C49.3,14.3,49.8,15,50.1,15.8z M49.1,13.8
		c0.2,0,0.3,0,0.4,0.1c0.2,0.1,0.4,0.2,0.6,0.2c0,0,0.1,0.1,0.1,0.1c0,0.3,0,0.6,0,0.9c0,0,0,0.1,0,0.2c-0.2-0.3-0.3-0.6-0.5-0.8
		C49.5,14.3,49.3,14.1,49.1,13.8z M49.6,17.9c-0.1-0.1-0.1-0.2,0-0.3c0,0,0,0,0-0.1c0.1-0.2,0.1-0.2,0-0.3c0,0,0,0,0,0
		c0.1,0,0.2,0.1,0.2,0.2c-0.1,0.6-0.2,1.2-0.5,1.6c-0.2,0.3-0.5,0.6-0.7,0.8c0,0-0.1,0-0.2,0c-0.1,0-0.2,0-0.3,0c0,0,0,0,0,0
		c0,0,0,0,0.1,0c0.6-0.4,1-0.9,1.3-1.6c0-0.1,0.1-0.2,0.2-0.2C49.6,18.2,49.7,18,49.6,17.9z M49.1,19.7c0.3-0.4,0.6-0.8,0.8-1.3
		c0-0.1,0.1-0.1,0.3,0c-0.1,0.1-0.1,0.3-0.2,0.4c0,0.1,0,0.2,0.1,0.3c0.1,0.1,0.2,0.2,0.3,0.2c0,0,0.1,0.1,0.1,0.1
		c-0.2,0.3-1,0.6-1.6,0.7C49,19.9,49,19.8,49.1,19.7z M50.3,17.9c-0.1,0-0.2-0.1-0.2-0.1c0-0.1,0-0.1,0-0.2c0-0.3,0-0.3,0.4-0.3
		C50.4,17.5,50.3,17.7,50.3,17.9z M49.4,15.5c0.2,0.4,0.3,0.7,0.4,1.1c0.1,0.2,0,0.2-0.2,0.3c0-0.2-0.1-0.4-0.1-0.6
		c-0.1-0.6-0.5-1.2-1-1.6c-0.1-0.1-0.2-0.2-0.2-0.2c-0.1-0.1-0.1-0.2,0-0.3C48.7,14.5,49.2,14.9,49.4,15.5z M49.1,17.4
		c0-0.1-0.1-0.1-0.1-0.2c-0.1,0-0.1,0-0.2,0c0.1-0.1,0.1-0.2,0-0.3c-0.4-0.4-0.8-0.9-1.3-1.3c0,0,0-0.1,0-0.1
		c0.1-0.2,0.3-0.4,0.4-0.7C48.8,15.2,49.3,16.5,49.1,17.4z M48.7,17.1c-0.7,0-1.4,0-2.1,0c0,0,0,0,0-0.1c0.2-0.3,0.4-0.6,0.6-0.9
		C47.7,16.4,48,17,48.7,17.1z M47.4,14.6c-0.1,0.3-0.1,0.3-0.4,0.3c0,0-0.1,0-0.1-0.1c0,0-0.1-0.1-0.1-0.1c-0.2-0.2-0.2-0.2,0.1-0.4
		c0.1-0.1,0.3-0.1,0.4-0.2c0,0.1,0.1,0.2,0.1,0.3c0,0,0,0,0,0C47.4,14.5,47.4,14.6,47.4,14.6z M46.3,13C46.3,13,46.3,13,46.3,13
		c0,0.1-0.1,0.1-0.2,0.2c0,0-0.1-0.1-0.1-0.2C46.2,13,46.3,13,46.3,13z M45.7,14.1c0,0.1,0,0.1,0,0.2c-0.1,0.1-0.1,0.2-0.2,0.2
		c-0.6,0.7-0.9,1.6-1,2.5c0,0.9,0.3,1.8,0.9,2.5c0.2,0.3,0.5,0.5,0.8,0.8c-0.9,0-1.7-0.2-2.4-0.8c-0.7-0.6-0.9-1.3-1-2.2
		c0.2,0,0.4,0,0.6,0.1c0.1,0,0.3,0,0.4,0c0.1,0,0.2-0.1,0.2-0.2c0-0.1-0.1-0.2-0.2-0.2c-0.2,0-0.4,0-0.6,0c-0.1,0-0.2,0-0.4,0
		c0.1-1.3,0.8-2.3,2.2-2.7c-0.6,0.9-1,1.8-0.9,2.9c0,0.1,0.1,0.2,0.1,0.3c0.2-0.1,0.2-0.2,0.2-0.4c-0.1-1,0.3-1.9,0.9-2.7
		C45.3,14.2,45.5,14.1,45.7,14.1z M45.4,13.2C45.4,13.2,45.4,13.2,45.4,13.2c-0.1,0-0.2,0-0.3,0c0,0,0,0,0-0.1
		c0.1,0,0.1-0.1,0.2-0.1C45.3,13.1,45.4,13.1,45.4,13.2z M43.3,9c-0.2,0.2-0.3,0.4-0.5,0.5C42.9,9.2,43.1,9,43.3,9z M42.6,9.7
		c0.1,0,0.3,0,0.4,0c0.1,0,0.2,0.1,0.3,0.2c0.2,0.2,0.4,0.3,0.7,0.2c0.2,0.5,0.7,0.5,1,0.2c0.1,0.1,0.3,0.3,0.4,0.4c0,0,0,0.1,0,0.2
		c0,0.1-0.1,0.2-0.1,0.3c0,0.2-0.1,0.2-0.3,0.2c-0.4,0-0.8,0-1.2,0c-0.4,0-0.8,0-1.2,0c0,0-0.1,0-0.1,0C42.8,11,43,10.4,42.6,9.7z
		 M39.3,3c0.2,0.1,0.4,0.2,0.5,0.4c0.1,0,0.1,0.1,0.1,0.2c0.1,0.2,0.2,0.3,0.3,0.3c0.1,0,0.2,0.1,0.1,0.2c0,0.1,0,0.1,0,0.2
		c-0.1,0.2-0.2,0.2-0.3,0.1c0,0-0.1-0.1-0.1-0.2C39.9,3.7,39.6,3.4,39.3,3C39.3,3,39.3,3,39.3,3C39.3,3,39.3,3,39.3,3z M37.9,12.8
		c0,0,0.1,0,0.1,0c0.3,0.1,0.5,0.2,0.8,0.3c0,0.1-0.1,0.2-0.1,0.2c-0.1,0.1-0.2,0.1-0.1,0.2c0,0.1,0.1,0.2,0.2,0.2
		c0.1,0.1,0.3,0.1,0.4,0.1c-0.2,0.2-0.4,0.4-0.6,0.7c-0.2-0.2-0.3-0.4-0.5-0.6c-0.1-0.1-0.3-0.2-0.4-0.4c0,0-0.1-0.1-0.1-0.1
		C37.7,13.2,37.8,13,37.9,12.8z M39.1,15.3c-0.1-0.2-0.2-0.3-0.3-0.4C39,14.9,39.2,15.1,39.1,15.3z M36.8,14.7
		C37.6,15.3,38,16,38,17c-0.3,0-0.7,0-1,0c-0.2,0-0.4,0-0.6,0c-0.1,0-0.3,0-0.3,0.1c0,0-0.1,0-0.1,0c-0.2,0-0.3,0-0.5,0
		C36,16.3,36.4,15.5,36.8,14.7z M31.9,17.2c0.2,0,0.5,0,0.7,0c0.4,0,0.8,0,1.3,0c0.3,0,0.6,0,0.8,0.1c-0.1,0.2,0,0.3,0.2,0.4
		c0.2,0,0.3,0,0.4-0.1c0,0,0.1-0.1,0-0.1c0,0-0.1,0-0.1-0.1c-0.1,0-0.1,0-0.2,0c0.1-0.1,0.2-0.1,0.3-0.1c0.1,0,0.2,0.1,0.3,0.1
		c0.5,0,0.9,0.1,1.4,0.1c0.2,0,0.4,0.1,0.7,0.1c0,0,0.1,0,0.1,0c-0.6,0.1-1.2-0.2-1.8-0.1c0,0.1,0,0.2,0.1,0.2
		c0.2,0,0.5,0.1,0.7,0.1c0.3,0,0.6,0,0.9,0.1c0.1,0,0.1,0,0.2,0c-0.2,0.8-0.7,1.4-1.4,1.8c-1.2,0.7-2.4,0.7-3.5-0.1
		c-0.7-0.5-1.1-1.2-1.3-2c0-0.1,0-0.2-0.1-0.3C31.7,17.3,31.8,17.2,31.9,17.2z M31.8,16.7c0.1-0.6,0.3-1.1,0.7-1.5
		c0.9-1,2.4-1.4,3.6-0.9c0.1,0,0.1,0.1,0.2,0.1c-0.5,0.9-0.9,1.8-1.4,2.6c0,0,0,0,0,0c0,0,0,0,0-0.1c0-0.1,0-0.1,0-0.2
		c-0.1,0-0.2,0-0.2,0.1c0,0-0.1,0-0.1,0.1C34.5,17,34.3,17,34.2,17c-0.8,0-1.6-0.1-2.3-0.2C31.7,16.8,31.8,16.7,31.8,16.7z M37,17.2
		c0.3,0,0.7,0,1,0C37.9,17.3,37.2,17.3,37,17.2z M32.1,14.5c0.5-0.6,1.2-0.9,2-1.1c0.2,0,0.3-0.1,0.5-0.1c0.4,0,0.7,0,1,0.1
		c0.2,0.1,0.5,0.1,0.7,0.2c0.1,0,0.2,0.1,0.2,0.1c0,0,0,0.1,0.1,0.1c-0.1,0-0.1,0.1-0.2,0c-0.2-0.1-0.3-0.2-0.5-0.2
		c-1.5-0.4-3.2,0.2-4,1.5c-0.3,0.4-0.4,0.9-0.6,1.4c0,0.1,0,0.1-0.1,0.2c0,0,0,0-0.1,0.1c0-0.1-0.1-0.2-0.1-0.2
		C31.3,15.8,31.5,15.1,32.1,14.5z M38.3,18.9c-0.2,0.4-0.5,0.7-0.8,1.1c-0.1,0.2-0.4,0.3-0.6,0.4c-0.7,0.4-1.4,0.7-2.2,0.6
		c-1,0-1.9-0.4-2.6-1.1c-0.6-0.6-1-1.3-1.1-2.2c0-0.2-0.1-0.4,0.1-0.7c0.1,0.1,0.2,0.2,0.2,0.3c0,1.3,1,2.9,2.6,3.3
		c1.2,0.3,2.3,0.1,3.2-0.6c0.4-0.3,0.7-0.7,0.9-1.1c0.1-0.2,0.1-0.4,0.2-0.5c0-0.1,0-0.1,0.1-0.2c0,0,0.1-0.1,0.2,0
		c0,0,0.1,0.1,0.1,0.1C38.5,18.5,38.5,18.7,38.3,18.9z M38.7,17.3c0,0.1,0,0.2,0,0.2c0,0.1,0,0.2,0,0.3c-0.1,0-0.1,0-0.2-0.1
		c0-0.1,0.1-0.2,0.1-0.2c0-0.1,0-0.2,0-0.2c-0.2-0.1-0.1-0.2-0.1-0.4c0-1.1-0.5-2-1.3-2.7c-0.1-0.1-0.1-0.1,0-0.2
		c0.6,0.4,1.1,1,1.3,1.8c0.1,0.3,0.2,0.6,0.2,0.9c0,0.1,0,0.1-0.1,0.2c-0.1,0.1-0.1,0.1,0,0.2C38.7,17.2,38.8,17.3,38.7,17.3z
		 M39,16.7c0-0.8-0.4-1.5-0.9-2.1c-0.2-0.2-0.4-0.5-0.6-0.7c0,0,0,0,0-0.1c0.1,0,0.1,0,0.2,0.1c0.8,0.7,1.4,1.5,1.6,2.6
		c0,0.2,0,0.3,0,0.5c0,0,0,0-0.1,0C39,16.8,39,16.8,39,16.7z M39.2,17.9c-0.1,0-0.1,0-0.2,0c0,0,0-0.1,0-0.1
		C39.1,17.8,39.2,17.8,39.2,17.9C39.2,17.9,39.2,17.9,39.2,17.9z M39.8,8.8c-0.1-0.2-0.4-0.2-0.6-0.3c-0.1-0.1-0.3-0.2-0.3-0.3
		c0,0,0-0.1,0-0.1C39.1,8.1,39.2,8,39.3,8c0.2,0,0.4-0.2,0.5-0.4C40,7.3,40,7.3,40.3,7.5c0.2,0.2,0.4,0.4,0.7,0.6
		c0.3,0.3,0.6,0.7,0.9,1c-0.4,0-0.9-0.1-1.4-0.1c0,0-0.1,0-0.1,0C40.2,9.1,40,9.1,39.8,8.8z M40.2,11.5c-0.1,0-0.2,0-0.3-0.1
		c0.2-0.3,0.4-0.3,0.7-0.4C40.5,11.3,40.4,11.5,40.2,11.5z M41,18.2c-0.3,0-0.5-0.3-0.4-0.6C40.9,17.6,41.1,17.9,41,18.2z
		 M41.3,15.7c-0.2,0.2-0.4,0.4-0.6,0.7c-0.1-0.1-0.1-0.3-0.1-0.4c0.1-0.3,0.1-0.6,0.2-0.9c0-0.3,0-0.5,0.1-0.8c0,0,0-0.1,0.1-0.1
		c0.1-0.1,0.1-0.1,0.2-0.2c0.1-0.1,0.1-0.2,0-0.3c-0.1-0.3-0.1-0.6,0.1-0.9c0.2-0.3,0.4-0.5,0.6-0.7c0,0,0.1,0,0.1,0
		c0.6,0,1.2,0,1.7,0c0.1,0,0.2,0,0.2,0.1c0,0,0.1,0,0.2,0c0.4-0.2,0.8-0.1,1,0.2c-0.3,0.2-0.5,0.5-0.8,0.7
		C43.4,13.9,42.3,14.8,41.3,15.7z M46.4,20.8c-0.8,0.1-1.5,0-2.2-0.3c-1.2-0.5-1.9-1.5-2.1-2.8C42,17,42,16.4,42.3,15.8
		c0.1-0.3,0.3-0.5,0.5-0.7c0.5-0.4,0.9-0.8,1.4-1.2c0.2-0.2,0.5-0.3,0.9-0.3c0.2,0,0.3,0,0.4-0.1c0,0,0,0,0.1,0
		c-0.1,0.2-0.3,0.3-0.5,0.3c-0.1,0-0.2,0.1-0.3,0.1c-1.2,0.4-2,1.2-2.3,2.4c-0.5,1.9,0.8,3.8,2.7,4.2c0.5,0.1,0.9,0.1,1.4-0.1
		c0.2,0,0.4,0,0.5,0.2C46.8,20.7,46.6,20.8,46.4,20.8z M51.7,19.1C51,20,50.1,20.6,49,20.7c-0.8,0.1-1.6,0-2.2-0.5
		c-0.5-0.3-1-0.6-1.3-1.1c-0.8-1.2-0.9-3.1,0.1-4.4c0.1-0.2,0.3-0.3,0.5-0.4c0,0.1-0.1,0.2-0.1,0.3c0,0.1-0.1,0.1-0.1,0.2
		c-0.6,0.5-0.8,1.2-0.8,1.9c-0.1,1,0.2,1.9,0.9,2.7c0.1,0.1,0.2,0.3,0.4,0.4c0.6,0.3,1.1,0.7,1.7,0.7c0.7,0.1,1.4,0,2-0.3
		c0.6-0.3,1.2-0.7,1.6-1.3c0.8-1.1,0.9-2.8-0.1-4c-0.2-0.2-0.3-0.4-0.5-0.6c-0.2-0.2-0.5-0.3-0.7-0.4c-1-0.5-2.1-0.5-3.1,0
		c-0.3,0.1-0.5,0.2-0.8,0.3c0.2-0.3,0.4-0.5,0.7-0.6c0.6-0.2,1.3-0.4,2-0.3c0.7,0,1.3,0.3,1.8,0.7c0.8,0.6,1.4,1.3,1.6,2.3
		C52.7,17.3,52.4,18.3,51.7,19.1z M51.7,15.9c0.2,0.6,0.2,1.2,0.1,1.8c-0.1-0.2-0.2-0.5-0.1-0.7c0,0,0,0,0,0
		C51.5,16.5,51.6,16.2,51.7,15.9z M53.6,15.6c-0.3,0.3-0.5,0.5-0.9,0.7c-0.1-0.8-0.3-1.5-0.9-2.1c0,0,0.1,0,0.1-0.1
		c0.2-0.3,0.5-0.6,0.6-1c0-0.3,0.1-0.6,0.3-0.8c0.2-0.3,0.4-0.4,0.7-0.4c0.4,0,0.8,0.1,1.2,0.1c0.5,0,0.9,0,1.4,0
		c0.1,0,0.2,0,0.2,0.1c0,0.2,0.1,0.4,0.2,0.6c0,0.1,0,0.2-0.1,0.2c-0.3,0.2-0.4,0.4-0.6,0.6c-0.2,0.2-0.4,0.3-0.6,0.5
		C54.6,14.6,54.1,15.1,53.6,15.6z M56.1,14.1c-0.1,0.2-0.3,0.3-0.4,0.5c0,0,0,0-0.1,0C55.8,14.3,55.9,14.2,56.1,14.1
		C56,14,56.1,14,56.1,14.1z M55.5,14.9c-0.1,0.1-0.1,0.3-0.2,0.4c0,0-0.1,0-0.1,0C55.3,15.2,55.3,15.1,55.5,14.9
		C55.4,14.9,55.4,14.9,55.5,14.9z M54.9,18.5c-0.5-1-0.5-2-0.1-3c0,0,0,0,0,0c0,0.1,0,0.1,0,0.2c0,0.3-0.1,0.5-0.1,0.8
		c0,0,0,0.1,0,0.1c0.2,0.2,0.1,0.5,0.2,0.7c0.1,0.9,0.4,1.6,1.1,2.1c0.4,0.3,0.7,0.5,1.1,0.7c0.1,0.1,0.2,0.1,0.3,0.2
		C56.2,20.2,55.4,19.6,54.9,18.5z M62.1,19.4c-0.1,0.2-0.3,0.3-0.5,0.4c-0.5,0.5-1.2,0.6-1.9,0.7c-1.2,0.2-2.3-0.1-3.2-1
		c-0.7-0.6-1.1-1.4-1.2-2.3c-0.1-1,0.1-1.9,0.8-2.7c0.2-0.2,0.5-0.4,0.7-0.7c0,0,0,0,0.1,0c0,0.1,0,0.2-0.1,0.3
		c0,0.1-0.1,0.1-0.2,0.2c-0.8,0.7-1.1,1.5-1.1,2.5c0,1,0.4,1.8,1.1,2.5c0.6,0.6,1.4,0.9,2.3,0.9c1.3,0.1,2.4-0.4,3.2-1.4
		c0.4-0.5,0.6-1,0.7-1.7c0.2-1.9-1.1-3.5-3-3.9c-0.7-0.1-1.4-0.1-2.1,0.3c-0.1,0.1-0.2,0.1-0.4,0.1c-0.1-0.2,0-0.3,0.2-0.4
		c0.4-0.2,0.8-0.2,1.2-0.3c0.8-0.1,1.5,0.1,2.2,0.4c0.1,0,0.1,0.1,0.1,0.2c0,0,0-0.1,0-0.1c0.3,0.2,0.5,0.4,0.7,0.6
		c0.6,0.6,1.1,1.2,1.2,2.1C63.3,17.4,63,18.5,62.1,19.4z M62.3,15.7c0.2,0.4,0.2,0.9,0.2,1.3C62.4,16.6,62.3,16.2,62.3,15.7z
		 M63.3,8.7c-0.1-0.1-0.2-0.2-0.4-0.1c-0.1,0-0.1,0-0.2,0c0,0,0-0.1,0-0.1c0.1,0,0.2-0.1,0.3-0.1c0.4,0,0.5-0.2,0.6-0.5
		c0-0.3,0.1-0.5,0.2-0.8c0.1,0.2,0.3,0.3,0.3,0.4c0.3,0.6,0.8,1,1.3,1.4c0.3,0.2,0.5,0.4,0.7,0.6c-0.4-0.2-0.8-0.4-1.2-0.4
		c-0.3,0-0.6-0.1-0.9,0c-0.2,0.1-0.4,0-0.5-0.1C63.5,8.9,63.4,8.8,63.3,8.7z M63.9,11.7c-0.1-0.1-0.2-0.2-0.2-0.3
		c0.1,0,0.3-0.1,0.4-0.1c0,0,0,0,0,0C64.1,11.4,64,11.5,63.9,11.7z M64.4,18.1c0,0-0.1,0-0.1,0c-0.2-0.1-0.2-0.5,0-0.6
		c0.1-0.1,0.2-0.1,0.3,0c0.1,0.1,0.1,0.2,0.1,0.3C64.7,18,64.6,18.1,64.4,18.1z M65.6,15.8c-0.3,0.2-0.6,0.5-0.9,0.7
		c-0.1,0-0.1,0.1-0.2,0.1c-0.1,0-0.2,0-0.3,0c0,0,0-0.1,0-0.2c0.1-0.6,0.3-1.1,0.4-1.7c0-0.2,0.1-0.5,0.1-0.7c0-0.2,0.1-0.2,0.2-0.2
		c0.2,0,0.2-0.1,0.2-0.2c0.1-0.3,0.2-0.6,0.3-0.9c0-0.2,0.2-0.2,0.4-0.2c0.5,0,1.1,0,1.6,0c0.3,0,0.7,0,1,0.1c0.1,0,0.1,0,0.2,0
		c0.1,0,0.3-0.1,0.5,0.1c-0.2,0.1-0.3,0.1-0.5,0.1c-0.3,0.1-0.6,0.2-0.9,0.3c-0.2,0.1-0.4,0.2-0.4,0.4c0.1,0,0.2,0,0.3-0.1
		c0.2-0.1,0.3-0.2,0.5-0.2c0.2-0.1,0.5-0.2,0.7-0.2c0.2,0,0.3,0,0.4,0.2c-0.1,0-0.2,0.1-0.2,0.1c-1.2,0.2-2.2,0.8-2.9,1.8
		c-0.2,0.2-0.3,0.5-0.4,0.8C65.7,15.7,65.7,15.8,65.6,15.8z M69.1,20.5c-1.5-0.2-2.5-1.1-3.1-2.5c0-0.1,0-0.1,0-0.2
		c-0.1,0-0.1-0.2-0.1-0.3c-0.1-0.4-0.1-0.7-0.1-1.1c0-0.2,0.1-0.3,0.3-0.4c-0.1,0.6-0.1,1.1,0.1,1.7c0.3,1.2,1.1,1.9,2.1,2.4
		c0.3,0.1,0.5,0.2,0.8,0.1c0,0,0.1,0,0.2,0c0,0,0-0.1,0-0.1c0.2,0.2,0.5,0.3,0.7,0.5C69.7,20.6,69.4,20.6,69.1,20.5z M74.8,19.6
		c-0.6,0.7-1.4,1-2.3,1.1c-1,0.1-2-0.1-2.8-0.7c-0.9-0.6-1.4-1.4-1.5-2.5c-0.2-1.3,0.2-2.4,1.1-3.3c0.1-0.1,0.1-0.1,0.2-0.1
		c0,0,0.1,0,0.1,0c0,0,0,0.1,0,0.1c0,0.1-0.1,0.1-0.1,0.1c-0.8,0.7-1.3,1.6-1.2,2.8c0.1,1,0.5,1.8,1.2,2.4c0.5,0.5,1.1,0.7,1.7,0.8
		c0.2,0.1,0.5,0.1,0.7,0.1c0.2,0,0.4,0,0.6-0.1c0.6-0.1,1.3-0.4,1.8-0.8c0.7-0.6,1-1.3,1.2-2.2c0-0.1,0.1-0.1,0.1-0.2
		c0,0,0-0.1,0-0.1c0-0.1,0-0.2,0-0.3c0-1-0.4-1.8-1.2-2.5c-0.2-0.2-0.5-0.4-0.7-0.6c-0.3-0.2-0.6-0.3-0.9-0.3
		c-0.5-0.1-1-0.2-1.5-0.1c-0.2,0-0.4,0.1-0.6,0.2c-0.2,0.1-0.3,0.1-0.5,0.2c0-0.2,0.2-0.3,0.3-0.3c0.5-0.2,1-0.3,1.6-0.3
		c1.1,0,2,0.5,2.8,1.3c0.2,0.2,0.4,0.5,0.6,0.8C76.1,16.5,75.7,18.6,74.8,19.6z M76.1,18.1c0-0.1-0.1-0.2-0.1-0.3c0.1,0,0.2,0,0.3,0
		C76.3,18,76.2,18.1,76.1,18.1z M75.9,17.5c0-0.2,0.1-0.2,0.3-0.2C76.2,17.5,76.1,17.5,75.9,17.5z M79.8,13.4
		c-0.8,0.8-1.6,1.5-2.4,2.3c-0.4,0.3-0.7,0.7-1.1,1c-0.1,0.1-0.2,0.1-0.3,0c-0.2-0.2-0.3-0.6-0.2-0.8c0-0.1,0-0.1,0-0.2
		c-0.1-0.4,0-0.8,0.1-1.1c0.1-0.3,0.1-0.6,0.2-0.9c0,0,0-0.1,0.1-0.1c0.2-0.1,0.3-0.3,0.3-0.5c0-0.2,0-0.5,0.1-0.7
		c0-0.2,0.1-0.2,0.2-0.2c0.2,0,0.5,0,0.7,0c0.1,0,0.2,0,0.4-0.1c0.2,0,0.4,0,0.6,0c0.3,0,0.7,0,1,0c0.3,0,0.5,0.1,0.6,0.4
		c0.1,0.1,0.1,0.3,0.2,0.4C80.2,13,80,13.2,79.8,13.4z M80.1,11.5c-0.8,0-1.6,0-2.5,0c0,0-0.1,0-0.1,0c0-0.1,0-0.2,0.2-0.3
		c0.4-0.2,0.4-0.2,0.2-0.6c-0.2-0.5-0.4-1-0.8-1.3C77,9.1,76.8,9,76.5,9c-0.4-0.1-0.7-0.2-1.1-0.3c-0.2,0-0.4,0-0.6-0.1
		c0,0-0.1,0-0.1,0c-0.1-0.3-0.3-0.4-0.5-0.5c0.2-0.1,0.3-0.2,0.4-0.3c0.2-0.2,0.4-0.4,0.6-0.6c0.1-0.1,0.1-0.1,0.2,0
		c0.1,0.2,0.3,0.4,0.5,0.5c0.1,0.1,0.3,0.2,0.4,0.2c0.4,0.2,0.7,0.4,0.9,0.8c0.1,0.2,0.3,0.4,0.5,0.4c0,0,0.1,0,0.1,0.1
		c0.1,0.2,0.3,0.3,0.6,0.3c0,0,0.1,0,0.1,0.1c0.1,0.1,0.1,0.2,0.2,0.2c0.1,0.2,0.3,0.3,0.6,0.2c0.2,0,0.4-0.1,0.5-0.1
		c0.3,0,0.4,0,0.5,0.3c0.1,0.1,0.1,0.3,0.2,0.4c0,0.1,0.1,0.3,0.1,0.4C80.5,11.4,80.4,11.5,80.1,11.5z M81.1,14.6
		C81.1,14.6,81.1,14.6,81.1,14.6c0.1-0.1,0.1-0.1,0.2-0.1c0.1,0.1,0.2,0.2,0.3,0.4c0.2,0.6,0.7,1.1,1.1,1.5c0.2,0.2,0.4,0.4,0.6,0.5
		c0,0,0.1,0.1,0.1,0.1c0.1-0.1,0.1-0.3,0-0.4c-0.2-0.2-0.4-0.4-0.6-0.6c-0.4-0.4-0.8-0.9-1-1.4c0-0.1-0.1-0.2-0.1-0.3
		c0.3-0.2,0.7-0.4,1.1-0.4c0.6-0.1,1.1-0.1,1.7,0.1c0.3,0.1,0.7,0.4,1,0.6c1.2,1,1.5,2.6,0.8,3.9c-0.6,1.2-2,1.9-3.3,1.7
		c-0.9-0.1-1.6-0.6-2.1-1.2c-0.1-0.1-0.2-0.2-0.3-0.4c0-0.1-0.1-0.1-0.1-0.2c0,0,0-0.1,0-0.1c-0.3-0.4-0.3-0.9-0.2-1.3
		C80.2,16.1,80.5,15.3,81.1,14.6z M86.5,19.2c-0.6,0.8-1.4,1.3-2.5,1.5c-0.3,0.1-0.7,0-1,0.1c-0.1,0-0.1,0-0.2,0c0,0.1,0,0.1,0,0.1
		c0,0,0,0,0,0c0-0.1,0-0.1-0.1-0.2c-0.2,0-0.4-0.1-0.5-0.2c-1.2-0.4-2.1-1.2-2.5-2.4c-0.3-0.9-0.2-1.8,0.1-2.6
		c0.2-0.5,0.4-0.9,0.8-1.2c0.1-0.1,0.1-0.1,0.2-0.1c0,0,0.1,0,0.2,0c0,0,0,0.1-0.1,0.1c-0.4,0.4-0.8,0.8-0.9,1.3
		c-0.4,1.3-0.3,2.6,0.6,3.7c0.3,0.4,0.7,0.7,1.2,0.9c0.2,0.1,0.4,0.2,0.6,0.3c0.3,0.1,0.6,0.1,1,0.1c1.5,0,2.9-1,3.4-2.4
		c0.6-1.7-0.1-3.9-2.3-4.6c-0.4-0.1-0.7-0.2-1.1-0.3c-0.1,0-0.2,0-0.3,0c-0.5,0.1-1,0.3-1.4,0.4c0,0-0.1,0-0.1,0c0-0.1,0-0.1,0-0.2
		c0.1-0.1,0.2-0.1,0.3-0.2c0.6-0.3,1.3-0.3,2-0.2c0.9,0.1,1.7,0.4,2.4,1.1c0.7,0.7,1,1.5,1.1,2.4C87.2,17.6,87,18.5,86.5,19.2z
		 M50.6,1.4C50.6,1.4,50.6,1.4,50.6,1.4c0-0.3,0.1-0.5,0.1-0.8c0-0.3,0.2-0.4,0.5-0.5C51.6,0,52,0,52.3,0c0.6,0.1,1.1,0.3,1.7,0.5
		c0.1,0,0.3,0.2,0.3,0.3c0,0.2-0.1,0.2-0.3,0.3c-0.1,0-0.2,0.1-0.3,0.1c0,0,0,0.1,0,0.1c-0.1,0.3-0.2,0.6,0,0.9c0,0.1,0,0.2-0.1,0.2
		c0,0-0.1,0.1-0.1,0.1c-0.1,0.1-0.1,0.2-0.2,0.2c-0.1,0-0.1,0.1-0.1,0.2c0,0,0,0.1,0,0.1c0,0.2-0.1,0.3-0.3,0.3
		c-0.2,0-0.3-0.1-0.5-0.1c-0.2-0.1-0.2-0.1-0.3,0.1c0,0-0.1,0.1-0.1,0.1c-0.1,0-0.2-0.1-0.2-0.1c-0.2-0.4-0.4-0.7-0.7-1
		c-0.2-0.1-0.2-0.3-0.2-0.6C50.7,1.7,50.7,1.6,50.6,1.4z M54.4,16.7c-0.2,0.1-0.4,0.1-0.6,0c0,0,0,0,0-0.1c0,0,0-0.1,0-0.1
		C54,16.6,54.2,16.6,54.4,16.7C54.4,16.6,54.4,16.7,54.4,16.7z"/>
</g>
<g>
	<path class="st0" d="M13.5,25.5H5.9v-4.9h20.7v4.9h-7.5v21.1h-5.6V25.5z"/>
	<path class="st0" d="M30.1,20.7h18.3v4.7H35.7v5.6h12.6v4.7H35.7v6h12.8v4.8H30.1V20.7z"/>
	<path class="st0" d="M69.3,42.1H57.7l-1.6,4.5H50l10-25.9H67l10,25.9h-6L69.3,42.1z M59.2,37.4h8.6l-4.3-11.9L59.2,37.4z"/>
	<path class="st0" d="M101.9,27.9l-7.3,18.7h-2.4l-7.3-18.7v18.7h-5.5V20.7h7.7l6.3,16.2l6.3-16.2h7.8v25.9h-5.6V27.9z"/>
</g>
</svg>
