<svg id="Layer_1" data-name="Layer 1" xmlns="http://www.w3.org/2000/svg" viewBox="0 0 300 300"><title>Artboard 1</title><g id="GLL9gf"><path d="M116.55,172.38V140.5L89.68,158.29c.47,10.28.72,19.1,1.42,27.88.12,1.51,1.89,3.57,3.39,4.17,5.29,2.13,9.33,4.52,11.61,10.67,2.83,7.61,13.36,10.61,20.29,6.08,19.69-12.85,39-26.26,59.29-40l-12.39-5.5c1.5-4.49,2.93-8.76,4.5-13.47l15.47,5.94c0-6.84.09-13,0-19.14-.09-5,2.16-8.31,7.13-8.41,5.18-.11,7.12,3.5,7.11,8.35,0,18.79.1,37.57-.1,56.35,0,4.32.88,6.5,5.56,7.78,21.28,5.83,35.29,26.95,32.44,48.11-3.14,23.27-21.84,40.2-44.57,40.33-22.4.14-42-16.5-45.09-38.29-3.24-22.9,10-43.75,32-50.24l5.23-1.52V180.32c-2.18,1.3-4,2.3-5.77,3.46-16.85,11.21-33.74,22.34-50.46,33.73-4.11,2.81-7.83,3.08-12.26,1.17-11.29-4.88-22.74-9.38-34-14.37-3.91-1.74-6-1.2-8.72,2.31C61.42,232.71,19.49,228.07,5.89,198c-12.09-26.76,1.72-57.57,30.82-63.3,16-3.15,31.19.08,43,12.94,11.47-7.67,22.66-14.94,33.61-22.54,5.86-4.08,4-17.87-2.47-20.72-2.1-.92-4.2-1.86-6.32-2.72-4.63-1.87-5.76-6.21-4-9.61,1.15-2.2,6-4.13,8.64-3.52a65.5,65.5,0,0,1,17.29,7.06c2.13,1.22,3.62,5,3.92,7.7a76.22,76.22,0,0,1,0,16.88c-.79,6.65,1.66,10.13,8.05,11.48,4.73,1,7.21,3.48,5.6,8.87-1.67,5.61-4.23,7.13-9.81,5.09a17.43,17.43,0,0,0-2.39-.61c-.16,0-.38.15-.57.23C128.42,160.49,127.48,162.25,116.55,172.38Zm76.68,40.76c-12.48.43-25.37,16.58-23.65,32.22,1.78,16.15,16.82,28.78,33.14,27.56,16.8-1.25,29.11-15.54,28.31-32.88-.62-13.54-12.1-26.66-23.6-26.5,0,9,0,17.92,0,26.88,0,5-1.54,8.91-7.32,8.7s-7-4.23-6.91-9.18C193.3,231,193.23,222.08,193.23,213.14Zm-126.32-57c-10-9.68-23.72-11.71-34.92-5.21C19.52,158.13,12.9,172,16.73,186.39a30.92,30.92,0,0,0,28.85,22.77c11.52.23,22-5.37,24.4-13.17-7.88-3.26-15.93-6.2-23.58-10-2.82-1.38-6.35-4.54-6.55-7.12s2.83-6.16,5.37-8.07C52.15,165.61,59.58,161,66.91,156.1ZM61.73,177l15.85,6.13c-.6-5.73-1-10.11-1.61-15.48Z"/><path d="M156.85,98.84l-20,2.47C133.27,88,120.58,87.1,110.59,82.79c-5.38-2.32-10.89-.14-14.16,5-2.38,3.76-5.12,3.6-8.49,2.1-9.71-4.32-19.5-8.47-29.1-13-5.74-2.72-7.68-8.33-5.36-13.61,2.14-4.85,7.49-7.12,13.17-4.85,12.92,5.16,25.74,10.55,38.51,16a50.36,50.36,0,0,0,33.23,2.6c19-4.64,38.32-8.16,57.64-11.37,8.72-1.45,17.76-1,27-1.42C221,48.72,212.31,37.44,199.31,28.94c-4.92-3.22-6.28-8.2-3.5-12.3,3.09-4.56,7.34-5,12.1-2.79.19.08.36.2.55.3C231.12,26.4,244,45.21,245.76,71c.81,11.64.56,23.36,1.2,35,1.12,20.25,11.49,34.3,29.65,42.84,1.13.53,2.35.88,3.48,1.4,5.25,2.41,7.59,7,5.51,11.58-2.23,4.89-6.08,6.42-11.34,4.8-25.06-7.73-41.79-23.75-48.25-49.41-1.42-5.67-3.72-7.74-9.39-8.11a75.14,75.14,0,0,0-34.18,6c-1.84.77-3.48,3.47-4.05,5.59-2.75,10.27-4.95,20.68-7.7,30.94a19.08,19.08,0,0,1-4.28,8c-12.55,13.11-25.32,26-38.09,38.92-5.75,5.8-11.19,6.38-15.87,2s-4.31-9.84,1.1-15.94c10.39-11.69,21-23.19,31.19-35a22.36,22.36,0,0,0,4.74-9.77C152.15,126.62,154.3,113.3,156.85,98.84Z"/><path d="M268.81,101.39c-5.68-1.66-11.45-3.73-12.84-10.31-1.5-7.09,3-11.9,8.14-15.62a27.41,27.41,0,0,1,22.5-4.62c7.15,1.57,10.63,5.51,11.7,12.74a13.42,13.42,0,0,1-7.92,14.79A33.06,33.06,0,0,1,268.81,101.39Z"/></g></svg>